<svg id="Layer_1" data-name="Layer 1" xmlns="http://www.w3.org/2000/svg" viewBox="0 0 808.23 807"><defs><style>.cls-1{fill:#002042;}.cls-2{fill:#bf9028;}.cls-3{fill:#ba9147;}.cls-4{fill:#0b192b;}</style></defs><rect class="cls-1" width="808.23" height="807"/><ellipse class="cls-2" cx="404.12" cy="403.5" rx="349.91" ry="347.19"/><ellipse class="cls-1" cx="404.12" cy="403.34" rx="341.54" ry="339.21"/><path class="cls-2" d="M587,329.9c9.68,13.12,19.61,26,32,36.81,6,5.24,12.33,10.23,17.82,16,18,18.83,30.37,40.32,30.07,67.33A138.1,138.1,0,0,1,653.1,508.2a260.92,260.92,0,0,1-21.24,36.28,3.15,3.15,0,0,1-2.08,1.42c2.12-6,4.61-11.86,6.29-18,7.86-28.49,9.58-56.89-2.22-84.89-5.9-14-15.22-25.62-25.8-36.3-9.74-9.83-20.59-18.39-31.3-27.11-14.15-11.5-28.06-23.23-37.8-39-6.64-10.75-12.85-21.73-13.08-34.76-.45-24.34,10-42.55,31.69-53.87,5.86-3.06,12.12-5.35,18.21-8,.92-.39,1.88-.68,2.33-1.57-12.72.81-25.06.31-34.66-10.57,11.89,3.17,23.5,3.21,34.35-2.64-11.82-1.26-19.53-9.41-27.32-17.67-8.41-8.92-17.22-17.37-31.24-14.1-.44.1-1-.22-1.46-.24a4.7,4.7,0,0,0-1.18.36c1.82,2.82,2.85,6.28,8.68,5.18C515.74,211.51,515,221,518.82,231c3.68,9.54,11.33,15.63,20.89,21.06-14.56-1-27.14-3.34-34.82-16.57-7.15-12.32-8.48-24.66-1.21-37.29,5-8.67,18.08-15.54,27.47-12.89,7,2,14,5,19.85,10,7,6.1,13.78,12.55,21.58,17.72,6.31,4.19,13.08,6.71,20.86,5.71a69.4,69.4,0,0,1-18.78-12.61l0,.09c5,0,9.52,2.16,14.33,3,8.14,1.47,16.27,2.16,24.55.43-6-.82-11.54-2.88-17.2-4.63-13-4-23.91-11.52-34.39-19.72-20.84-16.32-44.08-24.56-70.78-22.65A126.16,126.16,0,0,0,438,178.68a37.53,37.53,0,0,1,11.21-11.11c39-26.36,80-29.84,122.76-9.81,9.47,4.44,17,11.76,23.54,19.63,13,15.7,29.56,25.19,48.42,31.7a166.24,166.24,0,0,1,33.87,16.8c4.35,2.73,9.34,4.76,13,8.52,4.92,5,5.82,9.51,3.33,16.44,4.86,4.66,10.45,8.48,16,12.39,14.8,10.4,30.52,19.78,41.44,34.81,1.6,2.21,3.73,4.33,2.93,7.46-.42.23-.77.57-1,.5-9.64-2.95-19.43-1.52-29.22-1.23-4.73.15-8.7-2.85-13.38-5.16a41.49,41.49,0,0,0,5.73,13.49c.91,1.33,1.84,2.51,3.83,2.8,11,1.64,17,12,13.77,22.78-1.48,4.9-4,7.79-9.08,9.33-11.11,3.37-22.07,7.25-33,11.09A42.71,42.71,0,0,1,675.47,361c-3.41-.18-4.05-.75-5.9-4.66,6,.78,11.17-1.66,16.71-2.7-10.8,0-21.09-1.4-30.45-8,11.17-3.09,22.7,1.05,33.24-4-24.85.07-43.28-13.74-62.13-28.18.7,5.42,1.83,10.09,6.23,14.31-9.94,1.18-18.19-1.66-26.31-4.68C595,318.66,584.7,312,577.48,301.2c-6.27-9.34-8.58-19.31-5-30.27a8.89,8.89,0,0,0,.26-1.94c0-.13-.13-.28-.3-.63-10.1,18.27-9.45,36.8-1.38,55.18,4,9,8.25,18,13.95,26.14a395.42,395.42,0,0,0,34.34,42.49c10.44,11.27,19.71,23.52,25.81,37.72,5.41,12.56,10.6,25.32,9.75,39.5a4,4,0,0,0,1.6,4c0-6.64.34-12.56-.06-18.43-1.41-20.77-9.08-39.25-20.52-56.48-4.08-6.16-9.16-11.29-14.14-16.52-14.63-15.35-27.4-31.91-35.72-51.59ZM578.4,177.55l1.13.16-.59-.76c-1.09-1.76-3.12-2.24-4.63-3.43-15-11.36-42.11-20.22-51-19,2.87.64,5.95,1.22,9,2,14.65,3.87,28.08,10.62,41.39,17.65ZM553,320.94c-.56.6-.14,1.1.2,1.58,0,0,.38-.06.41-.15a1,1,0,0,0-.7-1.36c-5.9-17.53-8-34.88,3-52.1C537.11,283.53,542,306.41,553,320.94ZM690.59,281.3l1,.38-.5-.93c-7-9.72-17.12-16.62-25.1-26.58l5.43-.39c-3.86-13.1-15.74-25.18-25.57-23.28,12.53,5.28,18.14,10.87,18.41,18.36-5.82-6-12.78-7.72-20.9-6-9.3,2-18.4,5.55-28.28,3.85a41.65,41.65,0,0,0,6.56,2.24c6.32,1.7,13,2.7,17.89,7.62a24.2,24.2,0,0,0,13.67,6.64c7.24,1.15,13.35,4.72,19.75,7.81C679.14,274,684.75,277.83,690.59,281.3Zm1,48.22c-5.42,0-10.64-1.68-17.34-2.79C680.48,331.38,686.15,329.43,691.56,329.52Z" transform="translate(-126.43 -7.92)"/><path class="cls-2" d="M582.72,668.15c-4.34-10-4.56-20.58-4.65-31.22-.16-18.38,7.4-34.49,14.49-50.81,6.88-15.81,13.43-31.74,17.7-48.55s5.3-33.79,4.81-50.87c-.21-7.36-2.45-14.74-4.46-22-5.59-20.24-19.74-34.1-34.54-47.51-13.44-12.18-28.08-23.12-40-36.89-17.39-20.12-25.52-43.21-20.51-71,1.93,3.26,1,6.12,1.58,8.67,2.77,13.29,9.78,24.41,17.45,35.29,8.57,12.17,20.17,21.18,31.51,30.41,9.91,8.07,19.51,16.43,29,25,14.12,12.69,23.75,27.94,30.24,45.45,3.19,8.61,4.19,17.49,4.69,26.75.69,12.53.28,24.84-2.25,37-3.79,18.24-8.89,36-18.74,52.27-5.19,8.6-9.81,17.76-14.34,26.87a160.83,160.83,0,0,0-11.6,30.88,72.92,72.92,0,0,0,.3,39.74C583.19,667.74,583,667.94,582.72,668.15Z" transform="translate(-126.43 -7.92)"/><path class="cls-2" d="M426.18,254.26a77.37,77.37,0,0,1,35.09-23.54c5.25-1.78,10.19-4.63,15.76-5.77,7.33-1.51,8.18-.81,8,7.05-52.5,26.67-85.85,66.36-86.42,128.29-4.22-17-6.16-33.82-3-51.1a146.7,146.7,0,0,1,18.21-48c-14.6,10.48-22.68,25.19-27.6,42.05.38-13.09,2.3-25.7,8.13-37.56,3.28-6.67,6.59-13.53,11.91-18.49,8.7-8.12,15.47-18.85,28-22.35,2.39-.66,4.19-3.2,6.47-4.53,11.81-6.89,24.67-10.6,38.19-12,2-.21,4.17.65,6.94,1.12-3.54,1.91-6.48,3.63-9.84,4.63-11.76,3.51-22.37,9.32-32.29,16.43-8.32,6-14.16,14-18.49,23.14-.2.73-.89,1.43,0,2.43Z" transform="translate(-126.43 -7.92)"/><path class="cls-2" d="M507.06,134.45c7.3-3.24,15-4.47,22.69-5.17,17.62-1.6,35.31-2,52.17,4.7,20.67,8.22,36.74,21.77,46.63,42a82,82,0,0,1,2.9,7.71c2.11-14.38-10.19-37.47-25.19-47.15,6.88-.55,29.87,15,38.74,27,9.89,13.34,14.17,28.35,10.94,46.14-6.08-13.7-5.21-29.17-15.26-40.45,5.27,10.73,5.37,22.33,6.21,34.43-8.28-1.79-15.49-5.19-22.45-9.25-10.79-6.29-17.94-16.3-25.73-25.55a96.29,96.29,0,0,0-48.2-31.22A114,114,0,0,0,507.06,134.45Z" transform="translate(-126.43 -7.92)"/><path class="cls-2" d="M492.77,313.16h-6.72v92.56c-4.75-2.23-7-5.09-6.23-9.94.81-5-.09-10,0-15.07.39-20.61-.85-41.23.53-61.84.12-1.79-.57-3.73-.06-5.77h-7.49v81c-5.62.44-6.91-1.81-6.86-6.38.27-23.93.16-47.87.41-71.8,0-3.77-2.61-2.88-4.34-3.19-2.67-.5-3.17,1.29-3.15,3.67.08,16.16.05,32.31.06,48.46v23.2c-4.41-.68-6.14-3.1-6.18-7.09-.17-18.6-.39-37.19-.56-55.79-.06-7.12,0-14.24,0-21.74h47.2V421.31c-6.6-8.27-6.65-8.27-6.65-18.82q0-41.72,0-83.44Z" transform="translate(-126.43 -7.92)"/><path class="cls-2" d="M705.87,425.36c-.12-6-.24-11-2.41-15.9-4.55-10.23-13.45-16-22-22.31q-4.8-3.52-9.71-6.94a8.13,8.13,0,0,1-3.48-6.63c.4-.36.63-.75.89-.77,15-1.32,28.84-6.79,42.82-11.78,3.74-1.33,7.44-2.86,11.28-3.81,6.73-1.68,9.33.57,8.39,7.28-.53,3.83.61,7.13,1.83,10.58,5,14.15.92,28.65-11.74,38.86,2.87-7.87,2.46-14.56-.73-22.41a44.82,44.82,0,0,1-3.61,19.18C715,416.39,712,421.54,705.87,425.36Z" transform="translate(-126.43 -7.92)"/><path class="cls-2" d="M399.49,242.22c12.68-35.35,37.09-55.45,72.71-61.73A114.54,114.54,0,0,1,486.51,179c4.92-.22,9.86-.05,16-.05-5.25,6.45-10.56,11.28-12.85,18.21-.58,1.78-2.67.87-4.05.87-7.57,0-15.38-1.06-22.65,1-24.25,6.91-45.45,18.78-60.31,40-.56.81-1.15,1.61-1.75,2.39C400.82,241.54,400.63,241.58,399.49,242.22Z" transform="translate(-126.43 -7.92)"/><path class="cls-2" d="M670.69,415.3c1.69-.92,1.91.72,2.47,1.52,14.53,20.7,19.37,43.42,13.09,68-3.15,12.32-8,24.32-15.91,34.3-8.13,10.21-16.05,20.82-27.08,28.52,7.38-9.95,12.4-21.22,18.46-31.9,3-5.25,5-10.86,7.12-16.42,3.26-8.47,6.13-17.44,7.16-26.16,2.29-19.47,2.81-39.24-5.32-58Z" transform="translate(-126.43 -7.92)"/><path class="cls-2" d="M427.24,378.11c-.26.15-.41.31-.54.31-9.81-.44-10.43-.38-11.53-11.46a114.5,114.5,0,0,1,11-62.51c.39-.8.61-2,2-2.07,2.48.77,1.78,2.94,1.46,4.51C424.92,330.52,424.82,354.31,427.24,378.11Z" transform="translate(-126.43 -7.92)"/><path class="cls-2" d="M441.39,275.1c16.5-.76,32.23-1.05,48-.83,5.31.07,10.62,0,15.93-.08,2.52,0,4.59.2,4.26,3.77-.27,3,.62,6.39-4,6.37-19.59-.07-39.19-.07-58.77-.44C441.75,283.79,442.69,278.93,441.39,275.1Z" transform="translate(-126.43 -7.92)"/><path class="cls-2" d="M600.49,507.53a120.79,120.79,0,0,1-13,66c-6.18,12.07-12.34,24.12-15.9,37.32a128.33,128.33,0,0,0-3.36,18c-1.26-9.07.19-18,1.88-26.83,3.26-17,11.87-32.1,17.77-48.16A269.62,269.62,0,0,0,600.49,507.53Z" transform="translate(-126.43 -7.92)"/><path class="cls-2" d="M550,457.82h-9.53V406.44c7.37,5.41,10.31,12,9.69,21C549.44,437.39,550,447.45,550,457.82Z" transform="translate(-126.43 -7.92)"/><path class="cls-2" d="M515.37,373.19c6.13,12.22,5.84,24.56,4.93,37a51.32,51.32,0,0,0-.33,7.42c.88,12.11.81,24.24.72,36.36,0,1.62.92,3.89-2.13,4.08-2.79.17-2.62-2-3-3.69a19.33,19.33,0,0,1-.65-4.4q-.09-37.63-.09-75.26A7.2,7.2,0,0,1,515.37,373.19Z" transform="translate(-126.43 -7.92)"/><path class="cls-2" d="M533.92,457.77c-7.06.32-6.95.32-6.93-6.09,0-19.67,0-39.34,0-59.83,4,3.68,7.1,6.62,7,12.17C533.75,421.81,533.92,439.61,533.92,457.77Z" transform="translate(-126.43 -7.92)"/><path class="cls-2" d="M504.84,264h-53A98.2,98.2,0,0,1,476,253.08c1.43-.41,2.91-.63,4.34-1,7-2,13.15-1.94,17.54,5.27C499.38,259.73,502.08,261.39,504.84,264Z" transform="translate(-126.43 -7.92)"/><path class="cls-2" d="M448.3,290.93h35.77c5,0,10,.19,14.93,0,2.62-.09,3.64,1.08,3.8,3.39.18,2.62-1.54,2.88-3.57,2.87-15.76,0-31.53-.12-47.29,0C447.07,297.25,447.63,294.52,448.3,290.93Z" transform="translate(-126.43 -7.92)"/><path class="cls-2" d="M582.75,457.73H566.81V432.06C574.24,439.37,581.12,446.54,582.75,457.73Z" transform="translate(-126.43 -7.92)"/><path class="cls-2" d="M749.8,318.3c.94,11.5-3.9,21-9.51,30.2-.72,1.18-1.81,2.25-3.28,1.41-1.92-1.1-3.93-3-3.08-5.13C737.65,335.23,737.48,323.36,749.8,318.3Z" transform="translate(-126.43 -7.92)"/><path class="cls-2" d="M432.64,377.38c-3.36-17.71-2.73-35.35,0-53Z" transform="translate(-126.43 -7.92)"/><path class="cls-3" d="M583.43,667.54a2.62,2.62,0,0,1,.08,3.13c-1-.63-.6-1.67-.79-2.52C583,667.94,583.19,667.74,583.43,667.54Z" transform="translate(-126.43 -7.92)"/><path class="cls-3" d="M670.68,415.21a.28.28,0,0,1,0,.09Z" transform="translate(-126.43 -7.92)"/><path class="cls-3" d="M574.66,206.2l.08-.2-.1.28Z" transform="translate(-126.43 -7.92)"/><path class="cls-3" d="M586.08,330.41c0-.39,0-.79,0-1.18l.85.67Z" transform="translate(-126.43 -7.92)"/><path class="cls-1" d="M690.59,281.3C684.75,277.83,679.14,274,673,271c-6.4-3.09-12.51-6.66-19.75-7.81a24.2,24.2,0,0,1-13.67-6.64c-4.89-4.92-11.57-5.92-17.89-7.62a41.65,41.65,0,0,1-6.56-2.24c9.88,1.7,19-1.88,28.28-3.85,8.12-1.73,15.08-.05,20.9,6-.27-7.49-5.88-13.08-18.41-18.36,9.83-1.9,21.71,10.18,25.57,23.28l-5.43.39c8,10,18.09,16.86,25.1,26.58Zm-34-27.1c-3.06-4.39-6.51-4.61-10.81-4.07C648.56,253.66,651.76,254.52,656.63,254.2Z" transform="translate(-126.43 -7.92)"/><path class="cls-1" d="M553,320.94c-11-14.53-15.87-37.41,2.91-52-11,17.22-8.91,34.57-3,52.1Z" transform="translate(-126.43 -7.92)"/><path class="cls-1" d="M573.69,174.22c-13.31-7-26.74-13.78-41.39-17.65-3-.8-6.1-1.38-9-2,8.87-1.25,36,7.61,51,19C574.1,173.75,573.89,174,573.69,174.22Z" transform="translate(-126.43 -7.92)"/><path class="cls-1" d="M691.56,329.52c-5.41-.09-11.08,1.86-17.34-2.79C680.92,327.84,686.14,329.51,691.56,329.52Z" transform="translate(-126.43 -7.92)"/><path class="cls-1" d="M574.31,173.52c1.51,1.19,3.54,1.67,4.63,3.43a4.45,4.45,0,0,0-.54.61l-4.71-3.34C573.89,174,574.1,173.75,574.31,173.52Z" transform="translate(-126.43 -7.92)"/><path class="cls-1" d="M552.88,321a1,1,0,0,1,.7,1.36c0,.09-.38.18-.41.15-.34-.48-.76-1-.2-1.58Z" transform="translate(-126.43 -7.92)"/><path class="cls-4" d="M578.94,177l.59.76c-.38-.05-.75-.11-1.13-.15A4.45,4.45,0,0,1,578.94,177Z" transform="translate(-126.43 -7.92)"/><path class="cls-4" d="M691.14,280.75l.5.93-1-.38Z" transform="translate(-126.43 -7.92)"/><path class="cls-1" d="M426.18,254.26l-.87,1.73c-.92-1-.23-1.7,0-2.43Z" transform="translate(-126.43 -7.92)"/><path class="cls-3" d="M656.63,254.2c-4.87.32-8.07-.54-10.81-4.07C650.12,249.59,653.57,249.81,656.63,254.2Z" transform="translate(-126.43 -7.92)"/><path class="cls-2" d="M293.68,389.64H399.37q29.53,0,50.28,8.54t32.74,22.28a84.5,84.5,0,0,1,17.21,29.92,106.78,106.78,0,0,1,5.2,32.88A103.55,103.55,0,0,1,498.06,521a86.45,86.45,0,0,1-49.18,49.82,100.29,100.29,0,0,1-37.7,6.87H292.91v-1.28l31.21-4.49q2.17-10.92,3.46-36.15t1.29-39.62V462.45a598.55,598.55,0,0,0-3.34-66.77l-31.85-4.76Zm38.91,5v178h9v-178ZM354.68,454v75a320.94,320.94,0,0,0,1.8,33.65,73,73,0,0,0,18.62,5.65,121.75,121.75,0,0,0,20.8,1.8,78.25,78.25,0,0,0,53.62-21.58q11.24-10.65,18-27.16t6.81-37.82q0-22.33-7.2-38.71A71.32,71.32,0,0,0,447.33,418a83.2,83.2,0,0,0-28.95-15.48,116.19,116.19,0,0,0-34.29-5,98.9,98.9,0,0,0-26.2,3.21q-.76,4.89-1.48,13.94t-1.22,21.25Q354.68,448.07,354.68,454Zm24.4-61.26V394a158.78,158.78,0,0,1,33.45,3.21q14.84,3.21,24.92,8.73a76.07,76.07,0,0,1,17.4,12.84,77.34,77.34,0,0,1,13,17.47,94.61,94.61,0,0,1,8.61,22,101.22,101.22,0,0,1,3.14,25.55q0,29.93-12.84,50.21T435.2,563.71q-18.75,9.43-35.57,9.44h-9.76v1.28h9.76q28,0,48.47-12.26a80.15,80.15,0,0,0,31-33,97.75,97.75,0,0,0,10.53-44.89q0-21.57-7.51-38.46t-18.82-28.06q-24.27-25-76.53-25Z" transform="translate(-126.43 -7.92)"/><polygon class="cls-1" points="341.45 569.8 311.93 521.75 343.04 498.65 372.56 546.69 341.45 569.8"/><polygon class="cls-1" points="335.56 464.68 334.22 457.43 353.33 454.26 354.67 461.52 335.56 464.68"/><polygon class="cls-1" points="335.72 460.87 335.56 453.49 354.93 453.43 355.09 460.8 335.72 460.87"/><path class="cls-2" d="M405,470.92l-25.94-4.5v-1.28H479v1.28l-38.39,4.5q8.59,19,24.27,44.3t28,41.1q13.49-14.9,31.85-41.74t27.35-43.66l-37.62-4.5v-1.28h74.74v1.54l-22.09,4.24q-7.58,9-14.64,18.49t-18.24,25.43q-11.16,15.92-17.59,25.49t-19.26,29.21q-1,15.8-1,35.19,0,26.46,4,42.63l31.85,4.5v1.28H434.83v-1.28l31.2-4.5a145.69,145.69,0,0,0,3.28-22.08q1.21-14,1.22-26.33,0-9.24-.77-28.89-7.45-13.62-18.94-32.3t-23.7-36.6Q414.93,483.25,405,470.92Zm69.21,177.22H483V567.87l-61.13-98h-9.38l61.77,98.88Z" transform="translate(-126.43 -7.92)"/></svg>